# xmcd CD database file
#
# Track frame offsets:
#	150
#	19225
#	31442
#	51331
#	65277
#	77057
#	87874
#	108714
#	121488
#	139035
#	151910
#	164862
#
# Disc length: 2588 seconds
#
# Revision: 0
# Processed by: cddbd v1.5.2PL0 Copyright (c) Steve Scherf et al.
# Submitted via: CDex 1.50beta10
#
DISCID=a30a1a0c
DTITLE=The Shot Band - The Shot Band
DYEAR=2005
DGENRE=Country
TTITLE0=My Lord
TTITLE1=To The Bar
TTITLE2=Love Like Water
TTITLE3=Peaches
TTITLE4=Better Luck Next Time
TTITLE5=The Only Way To Leave
TTITLE6=Dead in the Water
TTITLE7=One Hit Wonder
TTITLE8=And Then Some
TTITLE9=This Time
TTITLE10=Short Memory
TTITLE11=The Big Freeway
EXTD=YEAR: 2005
EXTT0=
EXTT1=
EXTT2=
EXTT3=
EXTT4=
EXTT5=
EXTT6=
EXTT7=
EXTT8=
EXTT9=
EXTT10=
EXTT11=
PLAYORDER=
